<?xml version="1.0" encoding="utf-8"?>
<!-- Generator: Adobe Illustrator 17.1.0, SVG Export Plug-In . SVG Version: 6.00 Build 0)  -->
<!DOCTYPE svg PUBLIC "-//W3C//DTD SVG 1.1//EN" "http://www.w3.org/Graphics/SVG/1.1/DTD/svg11.dtd">
<svg version="1.1" id="Layer_1" xmlns="http://www.w3.org/2000/svg" xmlns:xlink="http://www.w3.org/1999/xlink" x="0px" y="0px"
	 viewBox="0 0 512 512" enable-background="new 0 0 512 512" xml:space="preserve">
<path id="XMLID_1686_" fill="#EC1C24" d="M501.7,425.9c-5.9-32.2-12.7-47-19.4-65.2c-1.4,8.6-2.7,17.1-4.1,25.7
	c-20.4-23.9-54.4-17.6-78.9-4.6c-29.9,15.8-57,36.2-87.2,51.6c-26.3,13.5-54.4,23.6-83.5,29.2c-32.8,6.3-68.5,7.2-100.2-4.8
	c-16.6-6.3-31.5-16.5-42.2-30.8c-10.4-13.9-15.7-30.2-18.6-47.1c-1.2-6.7-1.3-16.9-0.4-24.7c2-17.2,9-33.6,18.6-47.9
	c1.8-2.7,3.8-5.4,5.8-8l0,0c0.7-0.9,1.5-1.8,2.2-2.8c0.1-0.2,0.3-0.3,0.4-0.5c0.6-0.7,1.2-1.5,1.9-2.2c0.2-0.2,0.4-0.5,0.6-0.7
	c0.6-0.7,1.2-1.3,1.8-2c0.2-0.2,0.4-0.5,0.6-0.7c0.8-0.9,1.6-1.7,2.5-2.5c0.2-0.2,0.5-0.5,0.8-0.8c0.1-0.1,0.1-0.1,0.2-0.2
	c0.6-0.6,1.3-1.3,2-2c0.1,0,0.1-0.1,0.2-0.1c0.7-0.7,1.5-1.5,2.4-2.3c0,0,0.1-0.1,0.1-0.1c0.9-0.8,1.8-1.7,2.8-2.5
	c0,0,0.1,0,0.1-0.1c1-0.9,2.1-1.8,3.2-2.7c0,0,0,0,0.1,0c1.1-0.9,2.3-1.8,3.5-2.7c0,0,0,0,0,0c1.2-0.9,2.5-1.8,3.8-2.7c0,0,0,0,0,0
	c1.3-0.9,2.7-1.7,4.1-2.5c0,0,0,0,0.1,0c0.7-0.4,1.4-0.8,2.1-1.2c-5.7,8.5-17,26.9-22.4,45.8c44.3,45,106.7,72.1,135.1,94.5
	c45.4-35.7,177.6-83.5,183.8-197.2c1.5-27.6-2.7-50.9-11-69.9c-26.8,7-48.7,7.3-48.7,7.3l0,0c27.1-11.8,51.8-32.2,61.9-59.9
	c10.2-27.7,2.7-63.4-22.4-78.9c-19.9-12.3-63.6-15-99.7,4.7c46.7-6.9,63.9,21.2,56.6,43.7c-2.5,7.7-8.9,14.8-17.4,20.7
	c-37.9-11.3-79.7-2.2-103.2,25c-23.5-27.2-65.4-36.4-103.2-25c-8.5-5.8-14.9-12.9-17.4-20.7c-7.3-22.5,9.9-50.7,56.6-43.7
	c-36.1-19.7-79.8-17-99.7-4.7C51.1,25.2,43.6,60.8,53.8,88.6c10.2,27.7,34.9,48.2,61.9,59.9l0,0c0,0-21.9-0.3-48.7-7.3
	c-8.2,19-12.5,42.3-11,69.9c0.7,13.5,3.3,26.1,7.2,37.8c-27.5,20.3-45.6,51.2-51,84.9c-9.6,60.1,14.8,124.7,72.4,156
	c77.4,42,160.8,18.3,223.6-20.1c60.4-36.9,104.3-85.5,140.4-83.5c7.8,0.4,15.1,3.3,21,8.5c-10.2,0.5-20.4,0.9-30.6,1.4
	C456,402.1,484.8,414.2,501.7,425.9z"/>
</svg>
